# xmcd
#
# Track frame offsets:
#	182
#	12555
#	25865
#	36417
#	49320
#	61140
#	74000
#	88002
#	101697
#	113140
#	124897
#	136587
#	146907
#	159900
#	170437
#	182847
#	197235
#	212867
#	228015
#	240837
#
# Disc length: 3355 seconds
# Revision: 12
# Processed by: cddbd v1.5.2PL0 Copyright (c) Steve Scherf et al.
# Submitted via: dBpowerAMP V12.0
#
DISCID=1c0d1914
DTITLE=Ray Charles - The Best Of Ray Charles: The Atlantic Years
DYEAR=1994
DGENRE=Soul
TTITLE0=It Should've Been Me
TTITLE1=Don't You Know
TTITLE2=Blackjack
TTITLE3=I've Got A Woman
TTITLE4=What Would I Do Without You?
TTITLE5=Greenbacks
TTITLE6=Come Back
TTITLE7=A Fool For You
TTITLE8=This Little Girl Of Mine
TTITLE9=Hallelujah, I Love Her So
TTITLE10=Lonely Avenue
TTITLE11=It's Alright
TTITLE12=Ain't That Love
TTITLE13=Swanee River Rock (Talkin' 'Bout That River)
TTITLE14=That's Enough
TTITLE15=What'd I Say (Part I)
TTITLE16=(Night Time Is) The Right Time
TTITLE17=Drown In My Own Tears
TTITLE18=Tell The Truth (Live)
TTITLE19=Just For A Thrill
EXTD=
EXTT0=
EXTT1=
EXTT2=
EXTT3=
EXTT4=
EXTT5=
EXTT6=
EXTT7=
EXTT8=
EXTT9=
EXTT10=
EXTT11=
EXTT12=
EXTT13=
EXTT14=
EXTT15=
EXTT16=
EXTT17=
EXTT18=
EXTT19=
PLAYORDER=
